<svg width="141" height="24" viewBox="0 0 141 24" fill="none" xmlns="http://www.w3.org/2000/svg">
<g clip-path="url(#clip0_169_2006)">
<path fill-rule="evenodd" clip-rule="evenodd" d="M8 5.33333H2V9.77777V14.2222H8V18.6667H14V14.2222V9.77777H8V5.33333Z" fill="#0D121C"/>
</g>
<path d="M38.759 5.556C39.737 5.556 40.607 5.754 41.369 6.15C42.137 6.54 42.755 7.074 43.223 7.752C43.697 8.43 43.976 9.195 44.06 10.047H41.306C41.222 9.597 41.069 9.198 40.847 8.85C40.625 8.496 40.334 8.22 39.974 8.022C39.614 7.818 39.182 7.716 38.678 7.716C38.072 7.716 37.55 7.863 37.112 8.157C36.674 8.451 36.338 8.925 36.104 9.579C35.87 10.233 35.753 11.097 35.753 12.171C35.753 13.791 36.011 14.964 36.527 15.69C37.049 16.41 37.766 16.77 38.678 16.77C39.182 16.77 39.614 16.656 39.974 16.428C40.334 16.194 40.625 15.888 40.847 15.51C41.069 15.126 41.222 14.706 41.306 14.25H44.06C43.982 14.868 43.832 15.459 43.61 16.023C43.388 16.581 43.073 17.079 42.665 17.517C42.257 17.955 41.732 18.3 41.09 18.552C40.448 18.804 39.671 18.93 38.759 18.93C37.547 18.93 36.5 18.648 35.618 18.084C34.736 17.52 34.055 16.728 33.575 15.708C33.101 14.688 32.864 13.497 32.864 12.135C32.864 10.767 33.101 9.594 33.575 8.616C34.049 7.632 34.727 6.876 35.609 6.348C36.491 5.82 37.541 5.556 38.759 5.556ZM49.8061 18.93C48.8941 18.93 48.0991 18.735 47.4211 18.345C46.7491 17.955 46.2271 17.403 45.8551 16.689C45.4891 15.975 45.3061 15.129 45.3061 14.151C45.3061 13.173 45.4891 12.318 45.8551 11.586C46.2271 10.854 46.7491 10.284 47.4211 9.876C48.0991 9.468 48.8971 9.264 49.8151 9.264C50.7331 9.264 51.5281 9.465 52.2001 9.867C52.8721 10.263 53.3911 10.827 53.7571 11.559C54.1231 12.291 54.3061 13.155 54.3061 14.151C54.3061 15.087 54.1261 15.915 53.7661 16.635C53.4121 17.349 52.8991 17.91 52.2271 18.318C51.5611 18.726 50.7541 18.93 49.8061 18.93ZM49.8151 16.977C50.2771 16.977 50.6491 16.842 50.9311 16.572C51.2131 16.302 51.4171 15.948 51.5431 15.51C51.6751 15.066 51.7411 14.583 51.7411 14.061C51.7411 13.569 51.6811 13.104 51.5611 12.666C51.4471 12.228 51.2491 11.874 50.9671 11.604C50.6851 11.334 50.3011 11.199 49.8151 11.199C49.3531 11.199 48.9781 11.328 48.6901 11.586C48.4081 11.838 48.2011 12.183 48.0691 12.621C47.9371 13.053 47.8711 13.533 47.8711 14.061C47.8711 14.547 47.9311 15.015 48.0511 15.465C48.1711 15.909 48.3721 16.272 48.6541 16.554C48.9361 16.836 49.3231 16.977 49.8151 16.977ZM59.1117 18.93C58.6797 18.93 58.2537 18.864 57.8337 18.732C57.4197 18.6 57.0417 18.405 56.6997 18.147C56.3577 17.889 56.0817 17.571 55.8717 17.193C55.6677 16.815 55.5657 16.377 55.5657 15.879V9.444H58.1937V15.546C58.1937 15.978 58.3347 16.332 58.6167 16.608C58.8987 16.884 59.3127 17.022 59.8587 17.022C60.3747 17.022 60.7827 16.89 61.0827 16.626C61.3887 16.356 61.5417 15.981 61.5417 15.501V9.444H64.1427V18.75H62.1627L61.8567 16.905C61.7487 17.451 61.5447 17.871 61.2447 18.165C60.9507 18.453 60.6117 18.651 60.2277 18.759C59.8497 18.873 59.4777 18.93 59.1117 18.93ZM66.065 18.75V9.444H68.648V10.758C68.792 10.53 68.978 10.311 69.206 10.101C69.44 9.885 69.734 9.708 70.088 9.57C70.442 9.432 70.862 9.363 71.348 9.363C71.918 9.363 72.449 9.474 72.941 9.696C73.439 9.918 73.841 10.269 74.147 10.749C74.453 11.223 74.606 11.844 74.606 12.612V18.75H71.978V12.936C71.978 12.432 71.828 12.054 71.528 11.802C71.228 11.55 70.862 11.424 70.43 11.424C70.142 11.424 69.863 11.475 69.593 11.577C69.329 11.679 69.113 11.832 68.945 12.036C68.777 12.24 68.693 12.492 68.693 12.792V18.75H66.065ZM81.7306 11.271H79.6606L79.6786 16.23C79.6786 16.458 79.7056 16.629 79.7596 16.743C79.8196 16.851 79.9096 16.923 80.0296 16.959C80.1556 16.989 80.3146 17.004 80.5066 17.004H81.7576V18.624C81.6376 18.678 81.4486 18.729 81.1906 18.777C80.9386 18.825 80.5846 18.849 80.1286 18.849C79.3126 18.849 78.6796 18.744 78.2296 18.534C77.7856 18.324 77.4766 18.03 77.3026 17.652C77.1286 17.274 77.0416 16.836 77.0416 16.338V11.271H75.5296V9.444H77.1316L77.7886 6.636H79.6606V9.435H81.7306V11.271ZM83.402 18.75V9.444H85.931V11.649C86.081 11.175 86.291 10.761 86.561 10.407C86.837 10.047 87.17 9.768 87.56 9.57C87.95 9.366 88.391 9.264 88.883 9.264C88.967 9.264 89.045 9.27 89.117 9.282C89.195 9.288 89.252 9.3 89.288 9.318V11.82C89.234 11.796 89.168 11.781 89.09 11.775C89.018 11.769 88.952 11.763 88.892 11.757C88.376 11.715 87.935 11.73 87.569 11.802C87.203 11.874 86.906 11.997 86.678 12.171C86.45 12.345 86.285 12.558 86.183 12.81C86.081 13.062 86.03 13.344 86.03 13.656V18.75H83.402ZM93.0905 9.444V18.75H90.5795V9.444H93.0905ZM93.1175 5.745V8.112H90.5615V5.745H93.1175ZM97.3618 14.7C97.3558 15.174 97.4308 15.588 97.5868 15.942C97.7428 16.29 97.9678 16.56 98.2618 16.752C98.5618 16.938 98.9218 17.031 99.3418 17.031C99.7918 17.031 100.185 16.935 100.521 16.743C100.863 16.551 101.1 16.236 101.232 15.798H103.599C103.497 16.458 103.233 17.022 102.807 17.49C102.387 17.958 101.877 18.315 101.277 18.561C100.677 18.807 100.053 18.93 99.4048 18.93C98.4868 18.93 97.6768 18.738 96.9748 18.354C96.2788 17.964 95.7358 17.415 95.3458 16.707C94.9558 15.999 94.7608 15.165 94.7608 14.205C94.7608 13.275 94.9378 12.438 95.2918 11.694C95.6458 10.944 96.1588 10.353 96.8308 9.921C97.5088 9.483 98.3218 9.264 99.2698 9.264C100.218 9.264 101.013 9.465 101.655 9.867C102.303 10.263 102.789 10.818 103.113 11.532C103.443 12.24 103.608 13.059 103.608 13.989V14.7H97.3618ZM97.3528 13.134H101.151C101.151 12.762 101.082 12.42 100.944 12.108C100.806 11.796 100.596 11.55 100.314 11.37C100.038 11.19 99.6898 11.1 99.2698 11.1C98.8618 11.1 98.5138 11.199 98.2258 11.397C97.9438 11.589 97.7278 11.841 97.5778 12.153C97.4278 12.465 97.3528 12.792 97.3528 13.134ZM108.826 18.93C108.178 18.93 107.554 18.825 106.954 18.615C106.354 18.399 105.847 18.063 105.433 17.607C105.019 17.145 104.755 16.548 104.641 15.816H106.918C106.996 16.146 107.137 16.407 107.341 16.599C107.551 16.791 107.788 16.929 108.052 17.013C108.316 17.091 108.568 17.13 108.808 17.13C109.312 17.13 109.717 17.052 110.023 16.896C110.335 16.734 110.491 16.488 110.491 16.158C110.491 15.906 110.398 15.705 110.212 15.555C110.032 15.405 109.732 15.291 109.312 15.213L107.674 14.871C106.852 14.697 106.192 14.403 105.694 13.989C105.196 13.569 104.941 12.975 104.929 12.207C104.929 11.649 105.076 11.148 105.37 10.704C105.67 10.26 106.111 9.909 106.693 9.651C107.275 9.393 107.989 9.264 108.835 9.264C109.981 9.264 110.896 9.516 111.58 10.02C112.27 10.524 112.621 11.235 112.633 12.153H110.437C110.371 11.793 110.191 11.517 109.897 11.325C109.609 11.127 109.246 11.028 108.808 11.028C108.352 11.028 107.977 11.109 107.683 11.271C107.389 11.433 107.242 11.679 107.242 12.009C107.242 12.255 107.362 12.45 107.602 12.594C107.842 12.732 108.214 12.852 108.718 12.954L110.23 13.296C110.752 13.422 111.175 13.596 111.499 13.818C111.829 14.034 112.084 14.271 112.264 14.529C112.444 14.787 112.567 15.048 112.633 15.312C112.705 15.57 112.741 15.804 112.741 16.014C112.741 16.632 112.576 17.16 112.246 17.598C111.916 18.03 111.457 18.36 110.869 18.588C110.281 18.816 109.6 18.93 108.826 18.93Z" fill="#0D121C"/>
<defs>
<clipPath id="clip0_169_2006">
<rect width="16" height="16" fill="white" transform="translate(0 4)"/>
</clipPath>
</defs>
</svg>
